<?xml version="1.0" encoding="UTF-8"?>
<svg xmlns="http://www.w3.org/2000/svg" xmlns:xlink="http://www.w3.org/1999/xlink" width="698.6" height="376.2" viewBox="0 0 698.6 376.2">
<path fill-rule="nonzero" fill="rgb(0%, 0%, 0%)" fill-opacity="1" d="M 13.515625 278.226562 L 19.773438 278.226562 L 19.773438 344.507812 L 72.808594 344.507812 L 72.808594 349.476562 L 13.476562 349.476562 Z M 13.515625 278.226562 "/>
<path fill-rule="nonzero" fill="rgb(0%, 0%, 0%)" fill-opacity="1" d="M 302.101562 162.445312 C 293.09375 162.5 286.671875 160.238281 281.316406 156.753906 C 276.992188 153.9375 273.367188 150.320312 270.347656 146.285156 C 267.375 142.308594 264.996094 137.921875 263.207031 133.320312 C 260.855469 127.257812 259.539062 120.820312 258.699219 114.34375 C 257.886719 108.0625 257.523438 101.746094 257.378906 95.441406 C 257.511719 66.15625 257.644531 36.867188 257.777344 7.574219 L 297.949219 7.574219 L 297.949219 100.457031 C 297.925781 104.601562 298.269531 107.808594 299.0625 110.691406 C 299.578125 112.578125 300.292969 114.328125 301.507812 115.886719 C 302.46875 117.109375 303.738281 118.214844 304.949219 119.121094 C 306.003906 119.910156 307.015625 120.550781 308.191406 121.054688 C 309.917969 121.792969 312 122.234375 315.019531 122.25 L 380.398438 122.25 C 382.035156 122.328125 383.675781 122.3125 385.3125 122.214844 C 387.835938 122.0625 390.347656 121.710938 392.808594 121.109375 C 397.304688 120.011719 401.625 118.09375 405.441406 115.429688 C 409.253906 112.765625 412.558594 109.351562 414.992188 105.402344 C 416.804688 102.453125 418.136719 99.203125 418.917969 95.847656 C 419.671875 92.605469 419.917969 89.265625 419.925781 85.925781 C 419.9375 82.804688 419.742188 79.691406 419.128906 76.640625 C 418.5 73.488281 417.421875 70.40625 415.894531 67.566406 C 413.941406 63.941406 411.253906 60.710938 408.144531 58.011719 C 405.886719 56.054688 403.40625 54.375 401.167969 53.121094 C 397.851562 51.261719 395.066406 50.332031 391.359375 49.582031 C 385.738281 48.441406 378 47.707031 368.203125 47.75 L 368.203125 111.988281 L 328.175781 111.988281 L 328.175781 8.386719 L 373.972656 8.386719 C 376.703125 8.371094 379.433594 8.429688 382.160156 8.542969 C 387.164062 8.753906 392.160156 9.148438 397.117188 9.917969 C 402.78125 10.800781 408.398438 12.171875 413.707031 14.304688 C 419.738281 16.726562 425.378906 20.128906 430.558594 24.105469 C 435.453125 27.859375 439.9375 32.128906 443.789062 36.921875 C 448.035156 42.203125 451.503906 48.121094 454.140625 54.390625 C 457.183594 61.628906 459.117188 69.335938 459.882812 77.117188 C 460.195312 80.261719 460.316406 83.417969 460.289062 86.582031 C 460.246094 91.488281 459.855469 96.40625 458.914062 101.21875 C 457.964844 106.066406 456.457031 110.804688 454.546875 115.375 C 452.261719 120.839844 449.394531 126.058594 445.964844 130.882812 C 442.566406 135.664062 438.613281 140.054688 434.199219 143.90625 C 430.453125 147.167969 426.378906 150.039062 422.074219 152.539062 C 416.859375 155.566406 411.308594 158.050781 405.59375 159.757812 C 402.269531 160.75 398.890625 161.476562 395.390625 161.90625 C 392.136719 162.308594 388.773438 162.453125 385.523438 162.445312 Z M 302.101562 162.445312 "/>
<path fill-rule="nonzero" fill="rgb(0%, 0%, 0%)" fill-opacity="1" d="M 246.003906 324.347656 C 245.898438 326.542969 245.65625 328.742188 245.167969 330.890625 C 244.660156 333.121094 243.878906 335.296875 242.816406 337.316406 C 242.019531 338.835938 241.0625 340.265625 239.949219 341.59375 C 238.308594 343.554688 236.328125 345.292969 234.152344 346.5625 C 232.429688 347.570312 230.585938 348.285156 228.703125 348.917969 C 226.042969 349.816406 223.308594 350.546875 220.511719 350.953125 C 217.949219 351.324219 215.335938 351.421875 212.726562 351.460938 C 209.035156 351.511719 205.355469 351.433594 201.699219 351.046875 C 198.542969 350.710938 195.402344 350.140625 192.339844 349.246094 C 190.03125 348.574219 187.769531 347.71875 185.710938 346.511719 C 183.863281 345.429688 182.179688 344.070312 180.664062 342.535156 C 179.34375 341.199219 178.148438 339.734375 177.195312 338.203125 C 176.558594 337.175781 176.027344 336.117188 175.582031 335.089844 C 175.175781 334.160156 174.835938 333.257812 174.550781 332.285156 C 173.96875 330.304688 173.597656 328.035156 173.617188 322.183594 L 173.617188 278.199219 L 179.269531 278.199219 L 179.269531 320.96875 C 179.257812 324.855469 179.328125 326.046875 179.457031 327.101562 C 179.71875 329.269531 180.207031 330.859375 180.839844 332.402344 C 181.5 334.011719 182.3125 335.570312 183.382812 336.933594 C 184.527344 338.398438 185.964844 339.636719 187.507812 340.707031 C 189.535156 342.117188 191.746094 343.230469 194.058594 344.058594 C 196.550781 344.945312 199.164062 345.496094 201.792969 345.777344 C 203.6875 345.980469 205.589844 346.042969 207.492188 346.082031 C 210.238281 346.144531 212.988281 346.160156 215.726562 345.972656 C 218.097656 345.8125 220.460938 345.5 222.792969 344.964844 C 225.394531 344.367188 227.960938 343.496094 230.230469 342.132812 C 232.101562 341.007812 233.773438 339.550781 235.265625 337.914062 C 236.433594 336.628906 237.492188 335.230469 238.226562 333.675781 C 239.050781 331.925781 239.46875 329.980469 239.742188 328.0625 C 239.9375 326.695312 240.058594 325.34375 240.144531 323.96875 C 240.21875 322.207031 240.289062 320.449219 240.359375 318.691406 L 240.359375 278.28125 L 246.117188 278.28125 L 246.117188 320.074219 C 246.078125 321.496094 246.042969 322.921875 246.003906 324.347656 "/>
<path fill-rule="nonzero" fill="rgb(0%, 0%, 0%)" fill-opacity="1" d="M 340.820312 283.234375 L 308.269531 283.234375 L 308.269531 344.527344 L 340.484375 344.527344 C 343.039062 344.589844 344.777344 344.378906 346.234375 344.101562 C 347.246094 343.90625 348.117188 343.683594 349.03125 343.414062 C 350.269531 343.046875 351.578125 342.601562 352.886719 342.035156 C 355.605469 340.863281 358.3125 339.1875 360.640625 337.082031 C 362.761719 335.160156 364.5625 332.882812 365.855469 330.371094 C 367.035156 328.070312 367.792969 325.574219 368.214844 323.007812 C 368.53125 321.085938 368.664062 319.128906 368.703125 317.171875 C 368.730469 315.761719 368.707031 314.351562 368.675781 312.941406 C 368.65625 312.171875 368.632812 311.398438 368.589844 310.628906 C 368.464844 308.449219 368.160156 306.261719 367.628906 304.171875 C 367.1875 302.429688 366.59375 300.753906 365.859375 299.121094 C 364.996094 297.203125 363.945312 295.335938 362.667969 293.621094 C 360.789062 291.09375 358.429688 288.894531 356.179688 287.398438 C 354.363281 286.195312 352.613281 285.449219 350.953125 284.820312 C 349.628906 284.320312 348.359375 283.894531 345.9375 283.539062 C 345.15625 283.425781 344.25 283.320312 340.820312 283.234375 M 340.140625 349.5625 L 302.585938 349.5625 L 302.585938 278.335938 L 342.609375 278.335938 C 344.414062 278.351562 345.457031 278.40625 346.507812 278.53125 C 348.261719 278.738281 350.046875 279.125 351.867188 279.628906 C 353.628906 280.117188 355.425781 280.710938 357.113281 281.53125 C 359.324219 282.605469 361.34375 284.074219 363.257812 285.664062 C 365.140625 287.226562 366.921875 288.910156 368.398438 290.828125 C 370.441406 293.480469 371.902344 296.585938 373.035156 299.78125 C 373.910156 302.25 374.589844 304.773438 374.953125 307.34375 C 375.390625 310.414062 375.371094 313.546875 375.214844 316.671875 C 375.085938 319.15625 374.867188 321.636719 374.324219 324.054688 C 373.871094 326.074219 373.195312 328.046875 372.363281 329.957031 C 371.257812 332.496094 369.882812 334.914062 368.21875 337.132812 C 366.652344 339.226562 364.832031 341.148438 362.761719 342.722656 C 360.640625 344.335938 358.257812 345.585938 355.785156 346.644531 C 353.105469 347.792969 350.320312 348.710938 347.460938 349.125 C 345.832031 349.359375 344.183594 349.433594 342.539062 349.496094 C 341.738281 349.523438 340.9375 349.550781 340.140625 349.5625 "/>
<path fill-rule="nonzero" fill="rgb(0%, 0%, 0%)" fill-opacity="1" d="M 392.050781 278.140625 L 460.320312 278.140625 L 460.320312 283.433594 L 398.152344 283.433594 L 398.152344 309.730469 L 455.886719 309.730469 L 455.886719 315.039062 L 398.207031 315.039062 L 398.207031 344.433594 L 463.476562 344.433594 L 463.476562 349.742188 L 392.050781 349.742188 Z M 392.050781 278.140625 "/>
<path fill-rule="nonzero" fill="rgb(0%, 0%, 0%)" fill-opacity="1" d="M 481.964844 349.425781 L 481.964844 278.265625 L 487.40625 278.265625 L 550.441406 342.128906 L 550.441406 278.285156 L 556.003906 278.285156 L 556.003906 349.460938 L 549.941406 349.460938 L 487.097656 285.945312 L 487.097656 349.425781 Z M 481.964844 349.425781 "/>
<path fill-rule="nonzero" fill="rgb(0%, 0%, 0%)" fill-opacity="1" d="M 116.207031 346.605469 C 118.566406 346.578125 120.945312 346.546875 123.289062 346.234375 C 128.023438 345.597656 132.609375 343.808594 136.675781 341.214844 C 140.019531 339.082031 143.015625 336.402344 145.332031 333.222656 C 146.929688 331.027344 148.207031 328.59375 149.148438 326.046875 C 150.132812 323.375 150.75 320.578125 151.078125 317.746094 C 151.578125 313.425781 151.40625 309.027344 150.347656 304.761719 C 148.953125 299.164062 146.03125 293.796875 141.78125 289.996094 C 139.378906 287.851562 136.546875 286.207031 133.597656 284.878906 C 130.953125 283.6875 128.207031 282.753906 125.382812 282.128906 C 122.226562 281.433594 118.96875 281.128906 115.738281 281.191406 C 113.449219 281.128906 110.191406 281.433594 107.09375 282.03125 C 104.324219 282.566406 101.6875 283.335938 99.054688 284.503906 C 96.121094 285.804688 93.203125 287.59375 90.671875 289.851562 C 86.203125 293.847656 82.960938 299.304688 81.441406 304.992188 C 80.28125 309.328125 80.121094 313.792969 80.628906 318.1875 C 80.960938 321.070312 81.582031 323.917969 82.628906 326.617188 C 83.628906 329.1875 85.015625 331.621094 86.707031 333.78125 C 89.15625 336.914062 92.25 339.476562 95.652344 341.507812 C 99.789062 343.972656 104.386719 345.652344 109.125 346.25 C 111.46875 346.546875 113.851562 346.578125 116.207031 346.605469 M 116.289062 351.988281 C 116.265625 351.988281 116.242188 351.988281 116.222656 351.988281 C 116.199219 351.988281 116.175781 351.988281 116.15625 351.988281 C 115.1875 351.980469 114.222656 351.96875 113.257812 351.941406 C 112.289062 351.914062 111.316406 351.871094 110.351562 351.804688 C 109.847656 351.769531 109.347656 351.726562 108.84375 351.671875 C 108.570312 351.644531 108.292969 351.613281 108.015625 351.578125 C 107.496094 351.515625 106.976562 351.4375 106.460938 351.355469 C 104.402344 351.019531 102.378906 350.523438 100.402344 349.890625 C 98.4375 349.261719 96.523438 348.492188 94.671875 347.597656 C 93.75 347.15625 92.84375 346.679688 91.957031 346.175781 C 91.226562 345.757812 90.503906 345.324219 89.800781 344.867188 C 88.375 343.949219 87.007812 342.945312 85.714844 341.863281 C 84.398438 340.757812 83.15625 339.570312 82.019531 338.300781 C 81.109375 337.289062 80.261719 336.226562 79.484375 335.117188 C 78.800781 334.136719 78.167969 333.125 77.59375 332.085938 C 77.015625 331.039062 76.496094 329.96875 76.039062 328.875 C 75.5625 327.734375 75.15625 326.570312 74.808594 325.390625 C 74.464844 324.234375 74.1875 323.058594 73.957031 321.875 C 73.71875 320.648438 73.535156 319.410156 73.402344 318.167969 C 73.214844 316.375 73.125 314.578125 73.160156 312.777344 C 73.179688 311.863281 73.226562 310.949219 73.308594 310.035156 C 73.394531 309.113281 73.507812 308.191406 73.664062 307.277344 C 73.816406 306.351562 74.007812 305.429688 74.234375 304.519531 C 74.414062 303.808594 74.613281 303.101562 74.835938 302.402344 C 75.21875 301.207031 75.664062 300.03125 76.171875 298.882812 C 76.679688 297.722656 77.246094 296.59375 77.875 295.492188 C 78.507812 294.378906 79.195312 293.300781 79.941406 292.257812 C 80.691406 291.207031 81.5 290.195312 82.359375 289.230469 C 83.222656 288.257812 84.140625 287.332031 85.109375 286.457031 C 85.625 285.992188 86.15625 285.539062 86.703125 285.101562 C 87.277344 284.640625 87.867188 284.199219 88.46875 283.773438 C 89.648438 282.941406 90.875 282.175781 92.140625 281.476562 C 93.371094 280.796875 94.632812 280.179688 95.929688 279.628906 C 97.054688 279.144531 98.207031 278.714844 99.371094 278.328125 C 100.503906 277.957031 101.65625 277.632812 102.816406 277.347656 C 103.390625 277.210938 103.96875 277.078125 104.546875 276.960938 C 105.148438 276.835938 105.753906 276.722656 106.359375 276.617188 C 107.636719 276.398438 108.921875 276.21875 110.210938 276.082031 C 110.957031 276.003906 111.703125 275.9375 112.449219 275.890625 C 113.023438 275.851562 113.597656 275.824219 114.171875 275.8125 C 114.699219 275.796875 115.226562 275.792969 115.753906 275.804688 C 117.984375 275.769531 120.214844 275.878906 122.429688 276.128906 C 123.546875 276.257812 124.660156 276.421875 125.761719 276.625 C 126.796875 276.816406 127.824219 277.039062 128.84375 277.296875 C 130.789062 277.785156 132.707031 278.398438 134.578125 279.113281 C 135.410156 279.429688 136.234375 279.769531 137.046875 280.128906 C 137.5625 280.355469 138.074219 280.585938 138.578125 280.828125 C 139.609375 281.324219 140.621094 281.855469 141.609375 282.425781 C 142.621094 283.015625 143.601562 283.644531 144.546875 284.324219 C 145.03125 284.667969 145.503906 285.027344 145.960938 285.398438 C 146.40625 285.753906 146.835938 286.121094 147.257812 286.5 C 148.042969 287.207031 148.792969 287.953125 149.5 288.734375 C 150.199219 289.511719 150.859375 290.316406 151.484375 291.152344 C 152.097656 291.980469 152.675781 292.835938 153.210938 293.710938 C 154.277344 295.457031 155.183594 297.285156 155.933594 299.175781 C 156.304688 300.113281 156.640625 301.066406 156.933594 302.03125 C 157.296875 303.234375 157.601562 304.457031 157.839844 305.691406 C 158.125 307.15625 158.324219 308.640625 158.4375 310.128906 C 158.546875 311.59375 158.574219 313.070312 158.527344 314.539062 C 158.5 315.265625 158.460938 315.992188 158.398438 316.71875 C 158.34375 317.382812 158.273438 318.046875 158.1875 318.710938 C 158.066406 319.660156 157.914062 320.605469 157.726562 321.546875 C 157.347656 323.460938 156.835938 325.355469 156.167969 327.199219 C 155.597656 328.773438 154.917969 330.316406 154.125 331.800781 C 153.671875 332.652344 153.179688 333.484375 152.65625 334.296875 C 152.144531 335.082031 151.605469 335.847656 151.03125 336.589844 C 150.171875 337.703125 149.238281 338.761719 148.246094 339.765625 C 147.257812 340.761719 146.214844 341.703125 145.117188 342.589844 C 144.03125 343.46875 142.894531 344.292969 141.722656 345.058594 C 141.089844 345.46875 140.449219 345.863281 139.792969 346.246094 C 139.066406 346.667969 138.320312 347.074219 137.566406 347.453125 C 136.046875 348.222656 134.476562 348.90625 132.871094 349.488281 C 131.246094 350.078125 129.585938 350.566406 127.894531 350.945312 C 127.042969 351.136719 126.1875 351.296875 125.324219 351.433594 C 124.734375 351.523438 124.144531 351.601562 123.550781 351.664062 C 122.722656 351.753906 121.890625 351.816406 121.0625 351.863281 C 120.269531 351.90625 119.476562 351.933594 118.6875 351.953125 C 117.886719 351.972656 117.085938 351.980469 116.289062 351.988281 "/>
<path fill-rule="nonzero" fill="rgb(0%, 0%, 0%)" fill-opacity="1" d="M 578.03125 278.199219 L 583.941406 278.199219 L 583.941406 349.527344 L 578.03125 349.527344 Z M 578.03125 278.199219 "/>
<path fill-rule="nonzero" fill="rgb(0%, 0%, 0%)" fill-opacity="1" d="M 604.957031 349.441406 L 604.992188 278.316406 L 613.167969 278.316406 L 644.289062 344.558594 L 675.210938 278.234375 L 683.066406 278.234375 L 683.066406 349.4375 L 677.628906 349.4375 L 677.628906 284.476562 L 647.015625 349.550781 L 640.898438 349.550781 L 610.007812 285.144531 L 610.007812 349.441406 Z M 604.957031 349.441406 "/>
</svg>
